HIERARCHY
ROOT Hips
{
	OFFSET 0.0000 0.0000 0.0000
	CHANNELS 6 Xposition Yposition Zposition Zrotation Xrotation Yrotation
	JOINT Spine1
	{
		OFFSET -0.0137 5.0038 -0.0537
		CHANNELS 3 Zrotation Xrotation Yrotation
		JOINT Spine2
		{
			OFFSET -0.0000 7.1253 -0.0298
			CHANNELS 3 Zrotation Xrotation Yrotation
			JOINT Chest
			{
				OFFSET -0.0000 7.5501 -0.8160
				CHANNELS 3 Zrotation Xrotation Yrotation
				JOINT Neck1
				{
					OFFSET -0.1817 26.3113 -0.5533
					CHANNELS 3 Zrotation Xrotation Yrotation
					JOINT Neck2
					{
						OFFSET -0.0000 7.7094 2.3026
						CHANNELS 3 Zrotation Xrotation Yrotation
						JOINT Head
						{
							OFFSET -0.0000 6.1289 1.9537
							CHANNELS 3 Zrotation Xrotation Yrotation
							JOINT Jaw
							{
								OFFSET 0.0026 0.4756 3.0949
								CHANNELS 3 Zrotation Xrotation Yrotation
								End Site
								{
									OFFSET 0.0 1.0 0.0
								}
							}
							JOINT LeftEye
							{
								OFFSET 3.2064 5.3802 7.5869
								CHANNELS 3 Zrotation Xrotation Yrotation
								End Site
								{
									OFFSET 0.0 1.0 0.0
								}
							}
							JOINT RightEye
							{
								OFFSET -3.2224 5.3619 7.5582
								CHANNELS 3 Zrotation Xrotation Yrotation
								End Site
								{
									OFFSET 0.0 1.0 0.0
								}
							}
						}
					}
				}
				JOINT LeftShoulder
				{
					OFFSET 1.6217 23.2372 5.1134
					CHANNELS 3 Zrotation Xrotation Yrotation
					JOINT LeftArm
					{
						OFFSET 14.9198 0.0000 -5.5023
						CHANNELS 3 Zrotation Xrotation Yrotation
						JOINT LeftForeArm
						{
							OFFSET 28.7393 0.0000 -0.0026
							CHANNELS 3 Zrotation Xrotation Yrotation
							JOINT LeftHand
							{
								OFFSET 27.0940 -0.0000 0.0026
								CHANNELS 3 Zrotation Xrotation Yrotation
								JOINT LeftHandThumbEnd
								{
									OFFSET 12.2686 -3.2202 4.8331
									CHANNELS 3 Zrotation Xrotation Yrotation
									End Site
									{
										OFFSET 0.0 1.0 0.0
									}
								}
								JOINT LeftHandMiddleEnd
								{
									OFFSET 19.0120 -0.3129 -0.0340
									CHANNELS 3 Zrotation Xrotation Yrotation
									End Site
									{
										OFFSET 0.0 1.0 0.0
									}
								}
							}
						}
					}
				}
				JOINT RightShoulder
				{
					OFFSET -1.3801 23.1803 5.2142
					CHANNELS 3 Zrotation Xrotation Yrotation
					JOINT RightArm
					{
						OFFSET -15.0372 0.0000 -5.5456
						CHANNELS 3 Zrotation Xrotation Yrotation
						JOINT RightForeArm
						{
							OFFSET -28.7366 0.0000 -0.0026
							CHANNELS 3 Zrotation Xrotation Yrotation
							JOINT RightHand
							{
								OFFSET -27.1336 -0.0000 0.0026
								CHANNELS 3 Zrotation Xrotation Yrotation
								JOINT RightHandThumbEnd
								{
									OFFSET -12.2642 -3.2115 4.8040
									CHANNELS 3 Zrotation Xrotation Yrotation
									End Site
									{
										OFFSET 0.0 1.0 0.0
									}
								}
								JOINT RightHandMiddleEnd
								{
									OFFSET -19.0006 -0.3066 -0.0316
									CHANNELS 3 Zrotation Xrotation Yrotation
									End Site
									{
										OFFSET 0.0 1.0 0.0
									}
								}
							}
						}
					}
				}
			}
		}
	}
	JOINT LeftLeg
	{
		OFFSET 10.0432 -8.4345 2.5957
		CHANNELS 3 Zrotation Xrotation Yrotation
		JOINT LeftShin
		{
			OFFSET -0.0000 -43.2218 -0.8029
			CHANNELS 3 Zrotation Xrotation Yrotation
			JOINT LeftFoot
			{
				OFFSET 0.0000 -42.1551 -3.4815
				CHANNELS 3 Zrotation Xrotation Yrotation
				JOINT LeftToeBase
				{
					OFFSET 0.0000 -5.0595 13.2315
					CHANNELS 3 Zrotation Xrotation Yrotation
					End Site
					{
						OFFSET 0.0 1.0 0.0
					}
				}
			}
		}
	}
	JOINT RightLeg
	{
		OFFSET -10.0473 -8.2953 2.6203
		CHANNELS 3 Zrotation Xrotation Yrotation
		JOINT RightShin
		{
			OFFSET 0.0000 -43.3622 -0.8056
			CHANNELS 3 Zrotation Xrotation Yrotation
			JOINT RightFoot
			{
				OFFSET 0.0000 -42.1174 -3.4784
				CHANNELS 3 Zrotation Xrotation Yrotation
				JOINT RightToeBase
				{
					OFFSET -0.0000 -5.0796 13.2842
					CHANNELS 3 Zrotation Xrotation Yrotation
					End Site
					{
						OFFSET 0.0 1.0 0.0
					}
				}
			}
		}
	}
}
MOTION
Frames: 9
Frame Time: 0.033333
-2.0828 95.8335 0.7717 1.1692 8.4435 -1.0504 1.1190 7.6155 -0.2048 0.2319 -1.5853 0.2698 0.7212 16.5698 -2.0028 1.6139 13.0765 2.4251 -0.4785 -3.7645 -1.0017 4.5738 -12.0021 -3.3899 -0.0545 -0.0210 0.1713 0.6420 -10.4206 -3.6822 -0.7500 -10.4705 4.0461 3.8667 13.4139 -6.9402 -45.5530 -50.6697 -21.4140 1.1551 -0.0454 -88.2941 19.2468 37.7337 33.8936 -16.1157 11.2324 15.9491 -60.2038 1.8099 2.0733 -4.5049 14.3910 15.0266 66.3297 -36.7700 -3.4819 -0.1328 0.0226 96.4905 -27.3585 36.5729 -49.5243 16.2055 7.1099 -16.1311 49.1938 -3.9087 -5.2346 -5.9783 -31.5686 9.9473 0.2499 36.4720 0.4237 -1.7684 -13.2472 22.6021 1.6304 -0.9760 -2.1548 -7.0459 -38.4553 -14.9443 0.2063 24.6380 0.3232 8.9577 7.6227 -1.6492 -1.4269 -0.8801 0.9320
-1.4341 95.7987 0.1088 0.9367 8.5239 -1.6037 0.9673 7.8758 -0.2493 0.1477 -1.5046 0.2827 0.6076 16.6853 -2.1251 1.9785 13.0462 2.1816 -0.4594 -3.7940 -0.8177 4.7950 -11.6462 -3.3444 -0.0757 -0.0528 0.1944 0.6302 -10.4559 -3.6604 -0.7813 -10.5049 4.0778 4.2968 13.2864 -7.3267 -44.6738 -52.0167 -22.0784 1.1618 -0.1603 -87.4049 19.0919 37.5177 33.1235 -15.8859 11.1940 15.8787 -60.2640 1.8419 2.0137 -4.8345 14.4276 14.8678 66.6004 -37.7799 -3.6955 -0.0337 -0.0418 96.1777 -26.9006 36.5187 -49.3928 16.1452 7.0288 -16.1005 49.2010 -3.9310 -5.2163 -6.2612 -32.2201 10.1605 0.2077 36.5150 0.3921 -1.1376 -12.9873 22.7902 1.6352 -1.0406 -2.1959 -6.9500 -38.9359 -14.9650 0.1766 23.9014 0.2545 9.3673 9.5896 -1.1346 -1.4289 -1.2147 0.8838
-0.7372 95.7659 -0.6873 0.6871 8.5080 -1.9547 0.7619 8.0586 -0.2802 0.1190 -1.4648 0.1902 0.4763 16.8597 -2.1775 2.4393 13.1985 1.9235 -0.5075 -3.7714 -0.6014 4.9526 -11.4444 -3.1973 -0.1078 -0.0453 0.2403 0.6035 -10.4863 -3.6211 -0.8186 -10.5278 4.1382 4.6327 13.3294 -7.7943 -43.9914 -53.1946 -22.4813 1.0178 -0.1486 -86.7518 18.9292 36.9741 32.4159 -15.8248 11.0849 15.8365 -60.2473 1.8662 2.0348 -5.0392 14.4715 14.6698 66.7100 -38.4431 -3.8328 0.0197 -0.0890 96.1982 -26.4863 36.5408 -49.4483 16.1631 6.9214 -16.0309 49.1348 -3.9239 -5.2104 -6.5782 -32.7588 10.5665 0.1790 36.5630 0.3621 -0.3774 -12.8183 22.6627 1.6376 -0.9406 -2.2315 -6.8489 -39.4672 -15.1974 0.1710 23.4303 0.2485 10.1273 11.5002 -0.5285 -1.4392 -1.5324 0.8505
-0.1143 95.6403 -1.4158 0.3663 8.3609 -2.1605 0.5663 8.2290 -0.3286 0.0786 -1.3788 0.1398 0.4268 17.0013 -2.2261 2.7495 13.3917 1.7717 -0.4304 -3.7827 -0.5027 5.1552 -11.3678 -3.0345 -0.1004 -0.0411 0.2219 0.6054 -10.4973 -3.6375 -0.8051 -10.5316 4.1129 4.8559 13.4135 -8.1114 -43.8946 -54.1242 -22.3390 0.6272 -0.2020 -86.4650 18.7989 36.6378 31.6094 -15.6974 11.0276 15.8136 -60.1627 1.8481 2.0585 -5.1234 14.5941 14.6335 66.5677 -38.7662 -3.7748 -0.1620 -0.0751 96.4760 -26.1720 37.1191 -49.6405 16.2344 6.8648 -15.9960 49.1767 -3.8974 -5.2129 -6.7879 -33.1705 11.1662 0.1743 36.6415 0.3854 0.4081 -12.6956 22.1696 1.6405 -0.8848 -2.2207 -6.8745 -39.8360 -15.2315 0.1719 23.2269 0.2407 11.1618 12.9201 0.3843 -1.4354 -1.9639 0.8776
0.4343 95.4575 -2.0832 0.0298 8.0632 -2.2239 0.3341 8.4114 -0.3234 0.0684 -1.2911 0.0562 0.3951 17.1403 -2.1888 3.0583 13.5006 1.7687 -0.3416 -3.7585 -0.4781 5.3697 -11.2647 -2.9214 -0.0834 -0.0356 0.1761 0.6208 -10.5020 -3.6773 -0.7858 -10.5163 4.0535 5.0929 13.6748 -8.1712 -43.8052 -54.7296 -22.3738 0.4519 -0.1537 -86.4424 18.6177 36.0370 30.5836 -15.5599 10.9498 15.7003 -60.0697 1.9197 2.0275 -5.1123 14.7595 14.5896 66.3723 -38.8246 -3.7518 -0.3284 -0.2314 97.0762 -25.9767 37.9836 -49.9370 16.4334 6.7324 -15.9594 49.2274 -3.9061 -5.2699 -7.0005 -33.5073 11.9792 0.1612 36.9241 0.3763 1.0810 -12.8113 21.4048 1.6425 -0.8806 -2.1863 -7.1938 -40.1485 -14.9781 0.2238 23.3753 0.4268 12.7693 13.9253 1.5941 -1.4231 -2.3835 0.9015
0.8665 95.2062 -2.6994 -0.3535 7.5820 -1.9728 0.1964 8.6395 -0.3189 0.0805 -1.2467 0.0267 0.4155 17.2393 -2.0992 3.2286 13.6624 1.7475 -0.2981 -3.7698 -0.4596 5.6527 -11.2606 -2.8608 -0.0840 -0.0226 0.1768 0.6201 -10.4910 -3.6706 -0.7860 -10.4996 4.0485 5.2845 13.8330 -8.2498 -44.4588 -55.1174 -21.7898 0.2525 -0.1660 -86.6911 18.4557 35.2820 29.5499 -15.3680 10.9663 15.7208 -60.0423 1.8910 2.0592 -5.1695 14.9254 14.5438 66.2903 -38.5595 -3.8990 -0.4571 -0.2191 97.6975 -25.7821 38.5547 -50.3006 16.4688 6.7074 -15.9686 49.3624 -3.8972 -5.2419 -7.0706 -33.7554 12.7279 0.1912 37.4435 0.4616 1.6059 -13.0219 20.4258 1.6437 -0.7832 -2.1786 -8.1064 -40.0619 -13.9992 0.2809 24.2865 0.5494 14.1083 12.7976 2.0159 -1.4212 -2.3065 0.9607
1.1097 94.9245 -3.2875 -0.7758 6.9546 -1.3152 0.1453 8.8981 -0.3400 0.0914 -1.2183 0.0376 0.4844 17.2879 -2.0123 3.3866 13.8414 1.7037 -0.2156 -3.7726 -0.5034 5.8538 -11.3461 -2.7685 -0.0826 -0.0171 0.1746 0.6200 -10.4930 -3.6682 -0.7840 -10.4999 4.0414 5.5324 13.9003 -8.3688 -45.5325 -55.2852 -20.9537 0.1362 -0.2748 -87.0506 18.5612 34.4722 28.7764 -15.2651 11.0103 15.7594 -60.1669 1.8770 2.0744 -5.2494 15.1156 14.4436 66.3569 -38.1487 -4.0951 -0.5683 -0.2355 98.2091 -25.8447 39.2602 -51.0204 16.5624 6.7026 -16.0070 49.5579 -3.8696 -5.2563 -6.9459 -34.0172 13.1352 0.2138 38.2480 0.5255 2.0011 -13.2758 19.3354 1.6459 -0.6782 -2.1616 -9.2959 -39.7200 -12.7728 0.3344 26.6503 0.7025 13.9317 9.9419 0.7500 -1.4340 -2.1334 0.9939
1.2379 94.6387 -3.8636 -1.2741 6.2035 -0.3939 0.1844 9.1604 -0.3279 0.0988 -1.1856 0.0778 0.5805 17.3423 -1.9493 3.5835 14.0087 1.6496 -0.1397 -3.7485 -0.5458 6.0016 -11.4193 -2.7452 -0.0778 -0.0124 0.1644 0.6234 -10.4977 -3.6761 -0.7778 -10.5072 4.0274 5.7672 13.9260 -8.5174 -46.8451 -55.3591 -19.9808 0.0211 -0.3518 -87.3623 18.7804 33.8142 28.2360 -15.2366 11.0563 15.8252 -60.2565 1.8408 2.1175 -5.3009 15.3327 14.3622 66.4739 -37.8631 -4.3318 -0.5842 -0.2498 98.4556 -26.0541 40.0062 -52.0894 16.7306 6.6935 -16.0117 49.8199 -3.8049 -5.2105 -6.5700 -34.2521 13.1366 0.2398 39.1694 0.5836 2.2461 -13.4815 18.2391 1.6487 -0.5186 -2.1410 -10.4880 -39.1229 -11.5041 0.4197 30.7321 0.9365 12.5140 6.4664 -1.7441 -1.4583 -2.0837 1.0149
1.3148 94.3856 -4.5049 -1.8084 5.4439 0.5890 0.2605 9.3840 -0.2865 0.1078 -1.1689 0.1409 0.6780 17.3847 -1.8682 3.8284 14.1667 1.6134 -0.1025 -3.7176 -0.5591 6.1504 -11.4485 -2.8267 -0.0807 -0.0073 0.1635 0.6169 -10.4994 -3.6746 -0.7777 -10.5092 4.0267 5.9168 14.0178 -8.6979 -48.1675 -55.3536 -19.0107 -0.0501 -0.3392 -87.7482 19.1343 33.5165 27.9570 -15.2558 11.0856 15.9008 -60.3019 1.7542 2.1547 -5.3363 15.4642 14.3804 66.6746 -37.6662 -4.5731 -0.6062 -0.2184 98.5001 -26.2459 40.7843 -53.3258 16.9133 6.6824 -15.9895 50.0199 -3.7522 -5.1469 -6.0180 -34.4350 12.8216 0.2605 39.9767 0.6203 2.3025 -13.5904 17.3167 1.6503 -0.3493 -2.1217 -11.3841 -38.2670 -10.5825 0.5410 36.0262 1.2055 10.8451 3.1905 -4.4994 -1.4824 -2.0417 1.0177
